<?xml version="1.0" standalone="no"?>
<!DOCTYPE svg PUBLIC "-//W3C//DTD SVG 20010904//EN"
 "http://www.w3.org/TR/2001/REC-SVG-20010904/DTD/svg10.dtd">
<svg version="1.0" xmlns="http://www.w3.org/2000/svg"
 width="142.000000pt" height="142.000000pt" viewBox="0 0 142.000000 142.000000"
 preserveAspectRatio="xMidYMid meet">
<metadata>
Created by potrace 1.14, written by Peter Selinger 2001-2017
</metadata>
<g transform="translate(0.000000,142.000000) scale(0.100000,-0.100000)"
fill="#000000" stroke="none">
<path d="M638 1184 c-4 -3 -26 -7 -50 -8 -56 -4 -158 -76 -158 -111 0 -29 -16
-41 -65 -49 -89 -14 -101 -17 -114 -36 -7 -11 -21 -20 -30 -20 -9 -1 -28 -16
-42 -35 -21 -28 -26 -44 -24 -89 1 -36 7 -62 18 -74 21 -24 13 -48 -18 -56
-33 -8 -81 -106 -66 -135 6 -11 11 -28 11 -38 0 -22 94 -72 125 -67 48 8 57
-4 53 -68 -3 -55 -1 -63 22 -79 14 -10 34 -20 45 -22 11 -1 25 -6 31 -9 27
-17 205 9 219 32 4 6 26 -4 51 -22 62 -44 123 -51 186 -21 27 13 52 23 57 23
6 0 16 8 23 18 7 11 24 24 36 31 13 7 21 15 19 18 -3 2 -1 18 5 34 13 37 41
53 67 39 15 -7 23 -6 34 4 7 8 31 16 52 19 22 3 41 11 43 17 4 12 15 22 44 43
10 7 24 28 32 47 14 34 13 37 -20 93 -20 34 -28 57 -21 57 20 1 56 36 68 66 6
16 17 50 24 76 12 45 12 47 -14 71 -32 29 -101 57 -142 57 -26 0 -29 2 -19 19
26 50 -3 104 -80 148 -47 26 -176 24 -200 -4 -38 -45 -47 -47 -81 -19 -28 24
-90 56 -109 56 -3 0 -9 -3 -12 -6z"/>
</g>
</svg>
